<svg xmlns="http://www.w3.org/2000/svg" width="17" height="16" viewBox="0 0 17 16">
  <g id="icon" transform="translate(-2 -3.5)">
    <path id="Path_1346" data-name="Path 1346" d="M26.471,23.306H17.243A.241.241,0,0,1,17,23.067V8.739a.241.241,0,0,1,.243-.239h9.229a.241.241,0,0,1,.243.239V23.067A.241.241,0,0,1,26.471,23.306Zm-8.986-.478h8.743V8.978H17.486Z" transform="translate(-11.357 -3.806)" fill="#444"/>
    <path id="Path_1347" data-name="Path 1347" d="M30.586,5.172H25.243A.241.241,0,0,1,25,4.933V3.739a.241.241,0,0,1,.243-.239h5.343a.241.241,0,0,1,.243.239V4.933A.241.241,0,0,1,30.586,5.172Zm-5.1-.478h4.857V3.978H25.486Z" transform="translate(-17.414)" fill="#444"/>
    <path id="Path_1348" data-name="Path 1348" d="M58.886,32.44H55.243A.241.241,0,0,1,55,32.2V20.739a.241.241,0,0,1,.243-.239h3.643a.241.241,0,0,1,.243.239V32.2A.241.241,0,0,1,58.886,32.44Zm-3.4-.478h3.157V20.978H55.486Z" transform="translate(-40.129 -12.94)" fill="#444"/>
    <path id="Path_1349" data-name="Path 1349" d="M5.886,32.44H2.243A.241.241,0,0,1,2,32.2V20.739a.241.241,0,0,1,.243-.239H5.886a.241.241,0,0,1,.243.239V32.2A.241.241,0,0,1,5.886,32.44Zm-3.4-.478H5.643V20.978H2.486Z" transform="translate(0 -12.94)" fill="#444"/>
    <path id="Path_1350" data-name="Path 1350" d="M42.518,17.47H41.486A.482.482,0,0,1,41,16.993V15.978a.482.482,0,0,1,.486-.478h1.032a.482.482,0,0,1,.486.478v1.015A.482.482,0,0,1,42.518,17.47Zm-1.032-1.493v1.015h1.032V15.978Z" transform="translate(-29.529 -9.134)" fill="#444"/>
    <path id="Path_1351" data-name="Path 1351" d="M26.268,17.47H25.236a.482.482,0,0,1-.486-.478V15.978a.482.482,0,0,1,.486-.478h1.032a.482.482,0,0,1,.486.478v1.015A.482.482,0,0,1,26.268,17.47Zm0-1.493H25.236v1.015h1.032Z" transform="translate(-17.225 -9.134)" fill="#444"/>
    <path id="Path_1352" data-name="Path 1352" d="M42.518,29.845H41.486A.482.482,0,0,1,41,29.368V28.353a.482.482,0,0,1,.486-.478h1.032a.482.482,0,0,1,.486.478v1.015A.482.482,0,0,1,42.518,29.845Zm-1.032-1.493v1.015h1.032V28.353Z" transform="translate(-29.529 -18.554)" fill="#444"/>
    <path id="Path_1353" data-name="Path 1353" d="M26.268,29.845H25.236a.482.482,0,0,1-.486-.478V28.353a.482.482,0,0,1,.486-.478h1.032a.482.482,0,0,1,.486.478v1.015A.482.482,0,0,1,26.268,29.845Zm0-1.493H25.236v1.015h1.032Z" transform="translate(-17.225 -18.554)" fill="#444"/>
    <path id="Path_1354" data-name="Path 1354" d="M42.518,42.22H41.486A.482.482,0,0,1,41,41.743V40.728a.482.482,0,0,1,.486-.478h1.032a.482.482,0,0,1,.486.478v1.015A.482.482,0,0,1,42.518,42.22Zm-1.032-1.493v1.015h1.032V40.728Z" transform="translate(-29.529 -27.974)" fill="#444"/>
    <path id="Path_1355" data-name="Path 1355" d="M26.268,42.22H25.236a.482.482,0,0,1-.486-.478V40.728a.482.482,0,0,1,.486-.478h1.032a.482.482,0,0,1,.486.478v1.015A.482.482,0,0,1,26.268,42.22Zm0-1.493H25.236v1.015h1.032Z" transform="translate(-17.225 -27.974)" fill="#444"/>
    <path id="Path_1356" data-name="Path 1356" d="M33.05,56.8H30.035a.241.241,0,0,1-.243-.239V52.739a.241.241,0,0,1,.243-.239H33.05a.241.241,0,0,1,.243.239V56.56A.241.241,0,0,1,33.05,56.8Zm-2.772-.478h2.53V52.978h-2.53Z" transform="translate(-21.043 -37.299)" fill="#444"/>
    <path id="Path_1357" data-name="Path 1357" d="M61.182,31.076h-.759a.482.482,0,0,1-.486-.478v-.746a.482.482,0,0,1,.486-.478h.759a.482.482,0,0,1,.486.478V30.6A.482.482,0,0,1,61.182,31.076Zm-.759-1.224V30.6h.759v-.746Z" transform="translate(-43.867 -19.696)" fill="#444"/>
    <path id="Path_1358" data-name="Path 1358" d="M61.182,43.639h-.759a.482.482,0,0,1-.486-.478v-.746a.482.482,0,0,1,.486-.478h.759a.482.482,0,0,1,.486.478v.746A.482.482,0,0,1,61.182,43.639Zm-.759-1.224v.746h.759v-.746Z" transform="translate(-43.867 -29.259)" fill="#444"/>
    <path id="Path_1359" data-name="Path 1359" d="M61.182,56.2h-.759a.482.482,0,0,1-.486-.478v-.746a.482.482,0,0,1,.486-.478h.759a.482.482,0,0,1,.486.478v.746A.482.482,0,0,1,61.182,56.2Zm-.759-1.224v.746h.759v-.746Z" transform="translate(-43.867 -38.821)" fill="#444"/>
    <path id="Path_1360" data-name="Path 1360" d="M8.182,31.076H7.424a.482.482,0,0,1-.486-.478v-.746a.482.482,0,0,1,.486-.478h.759a.482.482,0,0,1,.486.478V30.6A.482.482,0,0,1,8.182,31.076Zm-.759-1.224V30.6h.759v-.746Z" transform="translate(-3.739 -19.696)" fill="#444"/>
    <path id="Path_1361" data-name="Path 1361" d="M8.182,43.639H7.424a.482.482,0,0,1-.486-.478v-.746a.482.482,0,0,1,.486-.478h.759a.482.482,0,0,1,.486.478v.746A.482.482,0,0,1,8.182,43.639Zm-.759-1.224v.746h.759v-.746Z" transform="translate(-3.739 -29.259)" fill="#444"/>
    <path id="Path_1362" data-name="Path 1362" d="M8.182,56.2H7.424a.482.482,0,0,1-.486-.478v-.746a.482.482,0,0,1,.486-.478h.759a.482.482,0,0,1,.486.478v.746A.482.482,0,0,1,8.182,56.2Zm-.759-1.224v.746h.759v-.746Z" transform="translate(-3.739 -38.821)" fill="#444"/>
  </g>
</svg>
