<svg xmlns="http://www.w3.org/2000/svg" width="20.8" height="20.8" viewBox="0 0 20.8 20.8">
  <g id="icon" transform="translate(-1.6 -1.6)">
    <g id="Group_640" data-name="Group 640" transform="translate(2 2)">
      <g id="Group_639" data-name="Group 639">
        <path id="Path_1458" data-name="Path 1458" d="M18.333,2.667H18V1a1,1,0,0,0-1-1h-.667a1,1,0,0,0-1,1V2.667H4.667V1a1,1,0,0,0-1-1H3A1,1,0,0,0,2,1V2.667H1.667A1.669,1.669,0,0,0,0,4.333v14A1.669,1.669,0,0,0,1.667,20H18.333A1.669,1.669,0,0,0,20,18.333v-14A1.669,1.669,0,0,0,18.333,2.667ZM16,3V1a.333.333,0,0,1,.333-.333H17A.333.333,0,0,1,17.333,1V4.333A.333.333,0,0,1,17,4.667h-.667A.333.333,0,0,1,16,4.333ZM2.667,3V1A.333.333,0,0,1,3,.667h.667A.333.333,0,0,1,4,1V4.333a.333.333,0,0,1-.333.333H3a.333.333,0,0,1-.333-.333ZM19.333,18.333a1,1,0,0,1-1,1H1.667a1,1,0,0,1-1-1V8.667H19.333ZM19.333,8H.667V4.333a1,1,0,0,1,1-1H2v1a1,1,0,0,0,1,1h.667a1,1,0,0,0,1-1v-1H15.333v1a1,1,0,0,0,1,1H17a1,1,0,0,0,1-1v-1h.333a1,1,0,0,1,1,1Z" fill="#444" stroke="#444" stroke-width="0.8"/>
      </g>
    </g>
    <path id="Path_1481" data-name="Path 1481" d="M5.836,9.954,4.489,8.606a.387.387,0,0,0-.548.548l1.623,1.623a.387.387,0,0,0,.548,0L10.22,6.669a.387.387,0,0,0-.548-.548Z" transform="translate(4.977 7.421)" fill="#444" stroke="#444" stroke-width="0.8"/>
  </g>
</svg>
