<svg xmlns="http://www.w3.org/2000/svg" width="16.438" height="16.2" viewBox="0 0 16.438 16.2">
  <g id="icon" transform="translate(-3 -3.4)">
    <path id="Path_2001" data-name="Path 2001" d="M18.985,16.6h0L14.111,9.572v-5.6c0-.272-.133-.473-.4-.473H9.029c-.272,0-.334.2-.334.473V9.412l-5.149,7.2c-.009.012-.053.068-.061.081a1.887,1.887,0,0,0-.193,1.935A1.97,1.97,0,0,0,5.1,19.5H17.273a2,2,0,0,0,1.827-.874A2.013,2.013,0,0,0,18.985,16.6ZM9.511,9.851c.058-.083.169-.182.169-.284V4.485h3.446V9.728c0,.1-.048.2.011.286L15.4,13.278c-.752.3-1.679.5-3.577-.629a5.163,5.163,0,0,0-4.234-.111L9.511,9.851Zm8.717,8.282a1.068,1.068,0,0,1-.955.382H5.1a1.068,1.068,0,0,1-.956-.381,1.042,1.042,0,0,1,.141-.978l2.778-3.884c.97-.419,3.008-1.1,4.507-.2a5.414,5.414,0,0,0,2.736.939,3.406,3.406,0,0,0,1.38-.318l2.4,3.465A1.033,1.033,0,0,1,18.228,18.134Z" fill="#444" stroke="#444" stroke-width="0.2"/>
    <path id="Path_2002" data-name="Path 2002" d="M17.9,50.969a1.347,1.347,0,1,0,1.347,1.347A1.348,1.348,0,0,0,17.9,50.969Zm0,2.2a.855.855,0,1,1,.854-.855A.856.856,0,0,1,17.9,53.17Z" transform="translate(-10.141 -35.784)" fill="#444" stroke="#444" stroke-width="0.2"/>
    <path id="Path_2003" data-name="Path 2003" d="M47.216,52.469a1.162,1.162,0,1,0,1.162,1.162A1.163,1.163,0,0,0,47.216,52.469Zm0,1.832a.67.67,0,1,1,.67-.67A.671.671,0,0,1,47.216,54.3Z" transform="translate(-32.379 -36.915)" fill="#444" stroke="#444" stroke-width="0.2"/>
    <path id="Path_2004" data-name="Path 2004" d="M32.046,45.469a.99.99,0,1,0,.99.99A.991.991,0,0,0,32.046,45.469Zm0,1.488a.5.5,0,1,1,.5-.5A.5.5,0,0,1,32.046,46.957Z" transform="translate(-21.073 -31.638)" fill="#444" stroke="#444" stroke-width="0.2"/>
  </g>
</svg>
