<svg xmlns="http://www.w3.org/2000/svg" width="17.5" height="20.5" viewBox="0 0 17.5 20.5">
  <path id="icon" d="M14.25,15.249v4.608a5.1,5.1,0,1,0,10.2,0V16.088a3.117,3.117,0,1,0-1.133,0v3.769a3.967,3.967,0,1,1-7.933,0V15.249a4.848,4.848,0,0,0,4.25-4.82V5h-3.4V6.143H18.5v4.286a3.683,3.683,0,1,1-7.367,0V6.143H13.4V5H10v5.429A4.848,4.848,0,0,0,14.25,15.249ZM21.9,13a1.983,1.983,0,1,1,1.983,2A1.994,1.994,0,0,1,21.9,13Z" transform="translate(-9.75 -4.75)" fill="#444" stroke="#444" stroke-width="0.5"/>
</svg>
